<svg xmlns="http://www.w3.org/2000/svg" viewBox="0 0 128 128">
  <!-- Rounded square background - Claude purple -->
  <rect x="8" y="8" width="112" height="112" rx="24" fill="#7C3AED"/>

  <!-- Simple bold "S" shape representing Skills -->
  <path d="M40 38
           C40 38, 88 38, 88 38
           C88 38, 88 50, 88 50
           C88 50, 52 50, 52 50
           C52 50, 52 58, 52 58
           C52 58, 88 58, 88 58
           C88 58, 88 90, 88 90
           C88 90, 40 90, 40 90
           C40 90, 40 78, 40 78
           C40 78, 76 78, 76 78
           C76 78, 76 70, 76 70
           C76 70, 40 70, 40 70
           Z"
        fill="#FFFFFF"/>

  <!-- Sparkle star -->
  <g transform="translate(80, 16)">
    <path d="M12 0 L14.5 9.5 L24 12 L14.5 14.5 L12 24 L9.5 14.5 L0 12 L9.5 9.5 Z" fill="#FBBF24"/>
  </g>
</svg>
